<?xml version="1.0" standalone="no"?>
<!DOCTYPE svg PUBLIC "-//W3C//DTD SVG 20010904//EN"
 "http://www.w3.org/TR/2001/REC-SVG-20010904/DTD/svg10.dtd">
<svg version="1.0" xmlns="http://www.w3.org/2000/svg"
 width="512.000000pt" height="512.000000pt" viewBox="0 0 512.000000 512.000000"
 preserveAspectRatio="xMidYMid meet">
<metadata>
Created by potrace 1.11, written by Peter Selinger 2001-2013
</metadata>
<g transform="translate(0.000000,512.000000) scale(0.100000,-0.100000)"
fill="#000000" stroke="none">
<path d="M888 4933 c-17 -4 -18 -49 -18 -769 l0 -764 810 0 810 0 0 770 0 770
-792 -1 c-436 -1 -801 -3 -810 -6z"/>
<path d="M2790 4170 l0 -770 680 0 680 0 0 770 0 770 -680 0 -680 0 0 -770z"/>
<path d="M4460 4140 l0 -740 290 0 290 0 0 404 c0 383 -1 407 -21 472 -75 243
-251 449 -481 565 l-78 39 0 -740z"/>
<path d="M474 4771 c-172 -121 -302 -299 -363 -495 -20 -65 -21 -89 -21 -472
l0 -404 235 0 235 0 0 710 c0 391 -4 710 -8 710 -5 0 -40 -22 -78 -49z"/>
<path d="M90 2011 c0 -1070 0 -1079 21 -1147 44 -142 132 -287 240 -393 53
-53 184 -151 201 -151 4 0 8 254 8 565 l0 565 -155 0 -155 0 0 155 0 155 155
0 155 0 0 665 0 665 -235 0 -235 0 0 -1079z"/>
<path d="M870 2425 l0 -665 810 0 810 0 0 665 0 665 -810 0 -810 0 0 -665z"/>
<path d="M2790 1645 l0 -1445 680 0 680 0 0 1445 0 1445 -680 0 -680 0 0
-1445z"/>
<path d="M4460 1675 l0 -1415 78 39 c230 116 406 322 481 565 21 68 21 77 21
1147 l0 1079 -290 0 -290 0 0 -1415z"/>
<path d="M870 831 l0 -619 23 -6 c12 -3 376 -6 810 -6 l787 0 0 625 0 625
-810 0 -810 0 0 -619z"/>
</g>
</svg>
