<?xml version="1.0" standalone="no"?>
<!DOCTYPE svg PUBLIC "-//W3C//DTD SVG 20010904//EN"
 "http://www.w3.org/TR/2001/REC-SVG-20010904/DTD/svg10.dtd">
<svg version="1.0" xmlns="http://www.w3.org/2000/svg"
 width="512.000000pt" height="512.000000pt" viewBox="0 0 512.000000 512.000000"
 preserveAspectRatio="xMidYMid meet">
<metadata>
Created by potrace 1.11, written by Peter Selinger 2001-2013
</metadata>
<g transform="translate(0.000000,512.000000) scale(0.100000,-0.100000)"
fill="#000000" stroke="none">
<path d="M865 4928 c-27 -5 -60 -11 -72 -13 -37 -6 -146 -47 -213 -80 -166
-83 -325 -244 -410 -414 -28 -57 -71 -171 -65 -171 3 0 2 -8 -4 -17 -5 -10
-13 -40 -17 -68 -5 -27 -9 -752 -9 -1610 l0 -1560 23 -85 c21 -78 109 -274
135 -303 7 -7 24 -28 39 -47 140 -181 343 -303 576 -345 64 -12 356 -14 1752
-12 l1675 2 94 28 c302 88 543 317 641 608 50 148 49 111 49 1744 l-1 1530
-24 99 c-84 343 -333 598 -679 697 l-80 23 -1680 2 c-1026 1 -1699 -2 -1730
-8z"/>
</g>
</svg>
